<svg xmlns="http://www.w3.org/2000/svg" xmlns:ev="http://www.w3.org/2001/xml-events" xmlns:xlink="http://www.w3.org/1999/xlink" width="521" height="521" baseProfile="full" version="1.1"><polygon fill="#F6851B" stroke="#F6851B" points="404.758 102.073 363.242 102.073 346.639 60.848"/><polygon fill="#F6851B" stroke="#F6851B" points="346.639 60.848 421.361 60.848 404.758 102.073"/><polygon fill="#E4761B" stroke="#E4761B" points="363.242 102.073 257.842 22.752 346.639 60.848"/><polygon fill="#E2761B" stroke="#E2761B" points="510.158 22.752 404.758 102.073 421.361 60.848"/><polygon fill="#763D16" stroke="#763D16" points="301.052 134.402 253.681 122.65 251.011 111.501"/><polygon fill="#763D16" stroke="#763D16" points="466.948 134.402 516.989 111.501 514.319 122.65"/><polygon fill="#763D16" stroke="#763D16" points="262.272 155.251 301.052 134.402 321.485 138.589"/><polygon fill="#763D16" stroke="#763D16" points="505.728 155.251 446.515 138.589 466.948 134.402"/><polygon fill="#763D16" stroke="#763D16" points="255.452 136.037 301.052 134.402 262.272 155.251"/><polygon fill="#763D16" stroke="#763D16" points="255.452 136.037 253.681 122.65 301.052 134.402"/><polygon fill="#763D16" stroke="#763D16" points="512.548 136.037 505.728 155.251 466.948 134.402"/><polygon fill="#763D16" stroke="#763D16" points="512.548 136.037 466.948 134.402 514.319 122.65"/><polygon fill="#763D16" stroke="#763D16" points="302.86 74.911 301.052 134.402 251.011 111.501"/><polygon fill="#763D16" stroke="#763D16" points="321.485 138.589 301.052 134.402 302.86 74.911"/><polygon fill="#763D16" stroke="#763D16" points="516.989 111.501 466.948 134.402 465.14 74.911"/><polygon fill="#763D16" stroke="#763D16" points="465.14 74.911 466.948 134.402 446.515 138.589"/><polygon fill="#E4761B" stroke="#E4761B" points="323.477 260.964 257.722 283.393 240.906 218.193"/><polygon fill="#E4761B" stroke="#E4761B" points="527.094 218.193 510.278 283.393 444.523 260.964"/><polygon fill="#763D16" stroke="#763D16" points="302.86 74.911 363.242 102.073 321.485 138.589"/><polygon fill="#763D16" stroke="#763D16" points="446.515 138.589 404.758 102.073 465.14 74.911"/><polygon fill="#763D16" stroke="#763D16" points="244.892 115.645 251.011 111.501 253.681 122.65"/><polygon fill="#763D16" stroke="#763D16" points="523.108 115.645 514.319 122.65 516.989 111.501"/><polygon fill="#F6851B" stroke="#F6851B" points="303.383 161.175 240.906 218.193 262.272 155.251"/><polygon fill="#F6851B" stroke="#F6851B" points="464.617 161.175 505.728 155.251 527.094 218.193"/><polygon fill="#763D16" stroke="#763D16" points="255.452 136.037 246.75 127.665 253.681 122.65"/><polygon fill="#763D16" stroke="#763D16" points="512.548 136.037 514.319 122.65 521.25 127.665"/><polygon fill="#F6851B" stroke="#F6851B" points="293.911 212.796 240.906 218.193 303.383 161.175"/><polygon fill="#F6851B" stroke="#F6851B" points="464.617 161.175 527.094 218.193 474.089 212.796"/><polygon fill="#E4761B" stroke="#E4761B" points="240.906 218.193 293.911 212.796 323.477 260.964"/><polygon fill="#E4761B" stroke="#E4761B" points="444.523 260.964 474.089 212.796 527.094 218.193"/><polygon fill="#763D16" stroke="#763D16" points="262.272 155.251 249.783 139.852 255.452 136.037"/><polygon fill="#763D16" stroke="#763D16" points="505.728 155.251 512.548 136.037 518.217 139.852"/><polygon fill="#763D16" stroke="#763D16" points="251.011 111.501 242.87 65.383 302.86 74.911"/><polygon fill="#763D16" stroke="#763D16" points="465.14 74.911 525.13 65.383 516.989 111.501"/><polygon fill="#F6851B" stroke="#F6851B" points="262.272 155.251 321.485 138.589 303.383 161.175"/><polygon fill="#F6851B" stroke="#F6851B" points="505.728 155.251 464.617 161.175 446.515 138.589"/><polygon fill="#E4761B" stroke="#E4761B" points="321.485 138.589 363.242 102.073 366.774 162.259"/><polygon fill="#E4761B" stroke="#E4761B" points="366.774 162.259 303.383 161.175 321.485 138.589"/><polygon fill="#E4761B" stroke="#E4761B" points="446.515 138.589 464.617 161.175 401.226 162.259"/><polygon fill="#E4761B" stroke="#E4761B" points="401.226 162.259 404.758 102.073 446.515 138.589"/><polygon fill="#763D16" stroke="#763D16" points="257.842 22.752 363.242 102.073 302.86 74.911"/><polygon fill="#763D16" stroke="#763D16" points="510.158 22.752 525.13 65.383 465.14 74.911"/><polygon fill="#763D16" stroke="#763D16" points="302.86 74.911 242.87 65.383 257.842 22.752"/><polygon fill="#763D16" stroke="#763D16" points="465.14 74.911 404.758 102.073 510.158 22.752"/><polygon fill="#F6851B" stroke="#F6851B" points="363.242 102.073 404.758 102.073 401.226 162.259"/><polygon fill="#F6851B" stroke="#F6851B" points="401.226 162.259 366.774 162.259 363.242 102.073"/><polygon fill="#CD6116" stroke="#CD6116" points="323.477 260.964 293.911 212.796 329.41 211.749"/><polygon fill="#CD6116" stroke="#CD6116" points="444.523 260.964 438.59 211.749 474.089 212.796"/><polygon fill="#CD6116" stroke="#CD6116" points="328.738 186.118 303.383 161.175 366.774 162.259"/><polygon fill="#CD6116" stroke="#CD6116" points="401.226 162.259 464.617 161.175 439.262 186.118"/><polygon fill="#F6851B" stroke="#F6851B" points="303.383 161.175 329.41 211.749 293.911 212.796"/><polygon fill="#F6851B" stroke="#F6851B" points="474.089 212.796 438.59 211.749 464.617 161.175"/><polygon fill="#E4751F" stroke="#E4751F" points="303.383 161.175 328.738 186.118 329.41 211.749"/><polygon fill="#E4751F" stroke="#E4751F" points="464.617 161.175 438.59 211.749 439.262 186.118"/><polygon fill="#C0AD9E" stroke="#C0AD9E" points="336.044 269.085 323.477 260.964 359.736 267.923"/><polygon fill="#C0AD9E" stroke="#C0AD9E" points="408.264 267.923 444.523 260.964 431.956 269.085"/><polygon fill="#D7C1B3" stroke="#D7C1B3" points="359.488 254.833 359.736 267.923 323.477 260.964"/><polygon fill="#D7C1B3" stroke="#D7C1B3" points="408.512 254.833 444.523 260.964 408.264 267.923"/><polygon fill="#E4761B" stroke="#E4761B" points="362.63 228.689 323.477 260.964 329.41 211.749"/><polygon fill="#E4761B" stroke="#E4761B" points="405.37 228.689 438.59 211.749 444.523 260.964"/><polygon fill="#D7C1B3" stroke="#D7C1B3" points="323.477 260.964 362.63 228.689 359.488 254.833"/><polygon fill="#D7C1B3" stroke="#D7C1B3" points="444.523 260.964 408.512 254.833 405.37 228.689"/><polygon fill="#CD6116" stroke="#CD6116" points="366.774 162.259 351.451 175.588 328.738 186.118"/><polygon fill="#CD6116" stroke="#CD6116" points="439.262 186.118 416.549 175.588 401.226 162.259"/><polygon fill="#F6851B" stroke="#F6851B" points="329.41 211.749 328.738 186.118 360.788 194.397"/><polygon fill="#F6851B" stroke="#F6851B" points="438.59 211.749 407.212 194.397 439.262 186.118"/><polygon fill="#233447" stroke="#233447" points="360.788 194.397 328.738 186.118 351.451 175.588"/><polygon fill="#233447" stroke="#233447" points="407.212 194.397 416.549 175.588 439.262 186.118"/><polygon fill="#CD6116" stroke="#CD6116" points="351.451 175.588 366.774 162.259 360.788 194.397"/><polygon fill="#CD6116" stroke="#CD6116" points="416.549 175.588 407.212 194.397 401.226 162.259"/><polygon fill="#F6851B" stroke="#F6851B" points="368.159 181.261 366.774 162.259 401.226 162.259"/><polygon fill="#F6851B" stroke="#F6851B" points="401.226 162.259 399.841 181.261 368.159 181.261"/><polygon fill="#E4751F" stroke="#E4751F" points="360.788 194.397 366.774 162.259 368.159 181.261"/><polygon fill="#E2761B" stroke="#E2761B" points="407.212 194.397 399.841 181.261 401.226 162.259"/><polygon fill="#C0AD9E" stroke="#C0AD9E" points="359.736 267.923 361.86 278.71 336.044 269.085"/><polygon fill="#C0AD9E" stroke="#C0AD9E" points="431.956 269.085 406.14 278.71 408.264 267.923"/><polygon fill="#F6851B" stroke="#F6851B" points="362.63 228.689 329.41 211.749 360.788 194.397"/><polygon fill="#F6851B" stroke="#F6851B" points="407.212 194.397 438.59 211.749 405.37 228.689"/><polygon fill="#E4751F" stroke="#E4751F" points="368.159 181.261 368.144 224.848 360.788 194.397"/><polygon fill="#E4751F" stroke="#E4751F" points="399.841 181.261 407.212 194.397 399.856 224.848"/><polygon fill="#F6851B" stroke="#F6851B" points="360.788 194.397 368.144 224.848 362.63 228.689"/><polygon fill="#F6851B" stroke="#F6851B" points="405.37 228.689 399.856 224.848 407.212 194.397"/><polygon fill="#F6851B" stroke="#F6851B" points="368.159 181.261 399.841 181.261 399.856 224.848"/><polygon fill="#F6851B" stroke="#F6851B" points="399.856 224.848 368.144 224.848 368.159 181.261"/><polygon fill="#C0AD9E" stroke="#C0AD9E" points="361.86 278.71 359.736 267.923 359.488 254.833"/><polygon fill="#C0AD9E" stroke="#C0AD9E" points="408.512 254.833 408.264 267.923 406.14 278.71"/><polygon fill="#C0AD9E" stroke="#C0AD9E" points="359.488 254.833 362.333 251.179 361.86 278.71"/><polygon fill="#C0AD9E" stroke="#C0AD9E" points="361.86 278.71 362.333 251.179 405.667 251.179"/><polygon fill="#C0AD9E" stroke="#C0AD9E" points="405.667 251.179 406.14 278.71 361.86 278.71"/><polygon fill="#C0AD9E" stroke="#C0AD9E" points="406.14 278.71 405.667 251.179 408.512 254.833"/><polygon fill="#161616" stroke="#161616" points="362.333 251.179 359.488 254.833 362.63 228.689"/><polygon fill="#161616" stroke="#161616" points="405.37 228.689 408.512 254.833 405.667 251.179"/><polygon fill="#161616" stroke="#161616" points="367.843 228.102 368.144 224.848 399.856 224.848"/><polygon fill="#161616" stroke="#161616" points="399.856 224.848 400.157 228.102 367.843 228.102"/><polygon fill="#161616" stroke="#161616" points="362.63 228.689 368.144 224.848 367.843 228.102"/><polygon fill="#161616" stroke="#161616" points="400.157 228.102 399.856 224.848 405.37 228.689"/><polygon fill="#161616" stroke="#161616" points="362.63 228.689 364.315 232.085 362.333 251.179"/><polygon fill="#161616" stroke="#161616" points="367.843 228.102 364.315 232.085 362.63 228.689"/><polygon fill="#161616" stroke="#161616" points="405.667 251.179 403.685 232.085 405.37 228.689"/><polygon fill="#161616" stroke="#161616" points="405.37 228.689 403.685 232.085 400.157 228.102"/><polygon fill="#161616" stroke="#161616" points="364.315 232.085 403.685 232.085 405.667 251.179"/><polygon fill="#161616" stroke="#161616" points="405.667 251.179 362.333 251.179 364.315 232.085"/><polygon fill="#161616" stroke="#161616" points="400.157 228.102 403.685 232.085 364.315 232.085"/><polygon fill="#161616" stroke="#161616" points="364.315 232.085 367.843 228.102 400.157 228.102"/></svg>